<svg width="14" height="14" viewBox="0 0 14 14" fill="none" xmlns="http://www.w3.org/2000/svg">
<path d="M12.2501 2.80001L11.3301 3.49001C11.0186 3.72369 10.6396 3.85001 10.2501 3.85001H8.03264C7.61436 3.85001 7.23198 4.08633 7.04492 4.46046V4.46046C6.81408 4.92214 6.93386 5.48214 7.33336 5.809L8.55316 6.80703C9.76728 7.80039 10.3956 9.34113 10.2223 10.9002V10.9002C10.1743 11.3322 10.0808 11.7579 9.94341 12.1702L9.80015 12.6" stroke="black" stroke-opacity="0.85" stroke-width="1.8"/>
<path d="M0.349854 5.95L2.50616 5.59061C3.5078 5.42368 4.37618 6.29205 4.20924 7.29369L4.13347 7.74828C3.96489 8.75978 4.47573 9.76294 5.39291 10.2215V10.2215C6.12733 10.5887 6.50816 11.4168 6.30902 12.2133L5.94985 13.65" stroke="black" stroke-opacity="0.85" stroke-width="1.8"/>
<circle cx="7" cy="7" r="6.1" stroke="black" stroke-opacity="0.85" stroke-width="1.8"/>
</svg>
