<svg width="88" height="32" viewBox="0 0 88 32" fill="none" xmlns="http://www.w3.org/2000/svg">
<rect width="88" height="32" rx="2" fill="#2E2F32"/>
<g clip-path="url(#clip0_32_753)">
<path d="M12.2063 17.3547L19.4322 11.3144L20.6715 7.00002" stroke="white" stroke-width="3.41614"/>
<path d="M26.3586 14.6453L19.1327 20.6856L17.8935 25" stroke="white" stroke-width="3.41614"/>
<path d="M66.8268 25.028C66.5383 25.028 66.2712 25.0046 66.0256 24.9578C65.7838 24.9149 65.5908 24.8642 65.4465 24.8058L65.9378 23.1565C66.2458 23.2461 66.5207 23.289 66.7625 23.2851C67.0042 23.2812 67.2167 23.2052 67.4 23.057C67.5871 22.9128 67.745 22.671 67.8737 22.3318L68.055 21.8464L64.7974 12.6759H67.0432L69.1136 19.4602H69.2072L71.2834 12.6759H73.5351L69.9382 22.7471C69.7706 23.2228 69.5483 23.6302 69.2715 23.9694C68.9947 24.3125 68.6554 24.5738 68.2538 24.7531C67.8561 24.9364 67.3805 25.028 66.8268 25.028Z" fill="white"/>
<path d="M58.0175 21.8405C57.4482 21.8405 56.9355 21.7392 56.4793 21.5364C56.027 21.3298 55.6683 21.0256 55.4032 20.624C55.142 20.2224 55.0114 19.7273 55.0114 19.1385C55.0114 18.6316 55.1049 18.2125 55.2921 17.8811C55.4792 17.5497 55.7346 17.2845 56.0582 17.0857C56.3819 16.8868 56.7464 16.7367 57.1519 16.6353C57.5613 16.5301 57.9844 16.454 58.421 16.4072C58.9474 16.3527 59.3744 16.3039 59.7019 16.261C60.0294 16.2142 60.2672 16.1441 60.4154 16.0505C60.5675 15.953 60.6435 15.8029 60.6435 15.6001V15.5651C60.6435 15.1245 60.5129 14.7833 60.2516 14.5416C59.9904 14.2998 59.6142 14.179 59.1229 14.179C58.6043 14.179 58.193 14.292 57.8888 14.5182C57.5886 14.7443 57.3859 15.0114 57.2806 15.3194L55.3038 15.0387C55.4597 14.4928 55.7171 14.0366 56.0758 13.6701C56.4345 13.2997 56.8731 13.0229 57.3917 12.8396C57.9103 12.6525 58.4834 12.5589 59.1112 12.5589C59.544 12.5589 59.9748 12.6096 60.4037 12.711C60.8326 12.8123 61.2244 12.98 61.5793 13.2139C61.9341 13.444 62.2187 13.7579 62.4331 14.1556C62.6515 14.5533 62.7607 15.0504 62.7607 15.6469V21.6592H60.7254V20.4252H60.6552C60.5265 20.6747 60.3452 20.9087 60.1113 21.127C59.8812 21.3415 59.5908 21.515 59.2398 21.6475C58.8928 21.7762 58.4854 21.8405 58.0175 21.8405ZM58.5673 20.2848C58.9923 20.2848 59.3607 20.201 59.6726 20.0333C59.9846 19.8618 60.2243 19.6356 60.392 19.3549C60.5636 19.0742 60.6493 18.7681 60.6493 18.4367V17.3781C60.5831 17.4327 60.47 17.4834 60.3101 17.5302C60.1542 17.577 59.9787 17.6179 59.7838 17.653C59.5888 17.6881 59.3958 17.7193 59.2048 17.7466C59.0137 17.7739 58.848 17.7972 58.7076 17.8167C58.3918 17.8596 58.1091 17.9298 57.8596 18.0273C57.6101 18.1248 57.4132 18.2612 57.2689 18.4367C57.1246 18.6082 57.0525 18.8305 57.0525 19.1034C57.0525 19.4933 57.1948 19.7877 57.4794 19.9866C57.7641 20.1854 58.1267 20.2848 58.5673 20.2848Z" fill="white"/>
<path d="M43.9044 21.6592L41.3661 12.6759H43.5242L45.1033 18.9923H45.1852L46.7994 12.6759H48.9341L50.5483 18.9572H50.636L52.1917 12.6759H54.3557L51.8116 21.6592H49.6067L47.9223 15.5885H47.7995L46.1151 21.6592H43.9044Z" fill="white"/>
<path d="M31.5574 21.6592V9.68143H36.049C36.9692 9.68143 37.7412 9.84129 38.3651 10.161C38.9928 10.4807 39.4665 10.9291 39.7863 11.5062C40.1099 12.0793 40.2717 12.748 40.2717 13.5122C40.2717 14.2803 40.1079 14.9471 39.7804 15.5124C39.4568 16.0739 38.9792 16.5086 38.3475 16.8166C37.7159 17.1208 36.94 17.2728 36.0198 17.2728H32.8207V15.4715H35.7274C36.2654 15.4715 36.706 15.3974 37.0491 15.2492C37.3923 15.0972 37.6457 14.8769 37.8095 14.5884C37.9771 14.2959 38.0609 13.9372 38.0609 13.5122C38.0609 13.0872 37.9771 12.7246 37.8095 12.4244C37.6418 12.1203 37.3864 11.8902 37.0433 11.7343C36.7002 11.5744 36.2576 11.4945 35.7157 11.4945H33.7272V21.6592H31.5574ZM37.7451 16.2318L40.7103 21.6592H38.289L35.3765 16.2318H37.7451Z" fill="white"/>
</g>
<defs>
<clipPath id="clip0_32_753">
<rect width="72" height="18" fill="white" transform="translate(8 7)"/>
</clipPath>
</defs>
</svg>
