<svg width="63" height="18" viewBox="0 0 63 18" fill="none" xmlns="http://www.w3.org/2000/svg">
<path d="M1.2063 10.3547L8.4322 4.31444L9.67147 2.09808e-05" stroke="white" stroke-width="3.41614"/>
<path d="M15.3586 7.64532L8.13274 13.6856L6.89347 18" stroke="white" stroke-width="3.41614"/>
<path d="M55.8268 18.028C55.5383 18.028 55.2712 18.0046 55.0256 17.9578C54.7838 17.9149 54.5908 17.8642 54.4465 17.8058L54.9378 16.1565C55.2458 16.2461 55.5207 16.289 55.7625 16.2851C56.0042 16.2812 56.2167 16.2052 56.4 16.057C56.5871 15.9128 56.745 15.671 56.8737 15.3318L57.055 14.8464L53.7974 5.67589H56.0432L58.1136 12.4602H58.2072L60.2834 5.67589H62.5351L58.9382 15.7471C58.7706 16.2228 58.5483 16.6302 58.2715 16.9694C57.9947 17.3125 57.6554 17.5738 57.2538 17.7531C56.8561 17.9364 56.3805 18.028 55.8268 18.028Z" fill="white"/>
<path d="M47.0175 14.8405C46.4482 14.8405 45.9355 14.7392 45.4793 14.5364C45.027 14.3298 44.6683 14.0256 44.4032 13.624C44.142 13.2224 44.0114 12.7273 44.0114 12.1385C44.0114 11.6316 44.1049 11.2125 44.2921 10.8811C44.4792 10.5497 44.7346 10.2845 45.0582 10.0857C45.3819 9.88683 45.7464 9.73671 46.1519 9.63534C46.5613 9.53007 46.9844 9.45404 47.421 9.40725C47.9474 9.35266 48.3744 9.30392 48.7019 9.26103C49.0294 9.21425 49.2672 9.14406 49.4154 9.05049C49.5675 8.95301 49.6435 8.8029 49.6435 8.60015V8.56506C49.6435 8.12447 49.5129 7.7833 49.2516 7.54156C48.9904 7.29982 48.6142 7.17896 48.1229 7.17896C47.6043 7.17896 47.193 7.29203 46.8888 7.51817C46.5886 7.74431 46.3859 8.0114 46.2806 8.31942L44.3038 8.03869C44.4597 7.49283 44.7171 7.03664 45.0758 6.67013C45.4345 6.29972 45.8731 6.02289 46.3917 5.83964C46.9103 5.65249 47.4834 5.55891 48.1112 5.55891C48.544 5.55891 48.9748 5.6096 49.4037 5.71097C49.8326 5.81235 50.2244 5.98 50.5793 6.21395C50.9341 6.44399 51.2187 6.75786 51.4331 7.15556C51.6515 7.55326 51.7607 8.05039 51.7607 8.64694V14.6592H49.7254V13.4252H49.6552C49.5265 13.6747 49.3452 13.9087 49.1113 14.127C48.8812 14.3415 48.5908 14.515 48.2398 14.6475C47.8928 14.7762 47.4854 14.8405 47.0175 14.8405ZM47.5673 13.2848C47.9923 13.2848 48.3607 13.201 48.6726 13.0333C48.9846 12.8618 49.2243 12.6356 49.392 12.3549C49.5636 12.0742 49.6493 11.7681 49.6493 11.4367V10.3781C49.5831 10.4327 49.47 10.4834 49.3101 10.5302C49.1542 10.577 48.9787 10.6179 48.7838 10.653C48.5888 10.6881 48.3958 10.7193 48.2048 10.7466C48.0137 10.7739 47.848 10.7972 47.7076 10.8167C47.3918 10.8596 47.1091 10.9298 46.8596 11.0273C46.6101 11.1248 46.4132 11.2612 46.2689 11.4367C46.1246 11.6082 46.0525 11.8305 46.0525 12.1034C46.0525 12.4933 46.1948 12.7877 46.4794 12.9866C46.7641 13.1854 47.1267 13.2848 47.5673 13.2848Z" fill="white"/>
<path d="M32.9044 14.6592L30.3661 5.67589H32.5242L34.1033 11.9923H34.1852L35.7994 5.67589H37.9341L39.5483 11.9572H39.636L41.1917 5.67589H43.3557L40.8116 14.6592H38.6067L36.9223 8.58846H36.7995L35.1151 14.6592H32.9044Z" fill="white"/>
<path d="M20.5574 14.6592V2.68143H25.049C25.9692 2.68143 26.7412 2.84129 27.3651 3.16101C27.9928 3.48073 28.4665 3.92912 28.7863 4.50618C29.1099 5.07933 29.2717 5.74802 29.2717 6.51222C29.2717 7.28033 29.1079 7.94707 28.7804 8.51242C28.4568 9.07388 27.9792 9.50863 27.3475 9.81665C26.7159 10.1208 25.94 10.2728 25.0198 10.2728H21.8207V8.47148H24.7274C25.2654 8.47148 25.706 8.3974 26.0491 8.24924C26.3923 8.09718 26.6457 7.87688 26.8095 7.58836C26.9771 7.29593 27.0609 6.93722 27.0609 6.51222C27.0609 6.08723 26.9771 5.72462 26.8095 5.4244C26.6418 5.12027 26.3864 4.89023 26.0433 4.73427C25.7002 4.57441 25.2576 4.49448 24.7157 4.49448H22.7272V14.6592H20.5574ZM26.7451 9.2318L29.7103 14.6592H27.289L24.3765 9.2318H26.7451Z" fill="white"/>
</svg>
